<svg width="1728" height="13250" viewBox="0 0 1728 13250" fill="none" xmlns="http://www.w3.org/2000/svg">
<g clip-path="url(#clip0_88_685)">
<rect width="1728" height="13250" fill="#050505"/>
<path opacity="0.1" d="M388 1983C388 2090.14 301.143 2177 194 2177C86.8568 2177 0 2090.14 0 1983C0 1875.86 86.8568 1789 194 1789C301.143 1789 388 1875.86 388 1983ZM76.7567 1983C76.7567 2047.75 129.248 2100.24 194 2100.24C258.752 2100.24 311.243 2047.75 311.243 1983C311.243 1918.25 258.752 1865.76 194 1865.76C129.248 1865.76 76.7567 1918.25 76.7567 1983Z" fill="url(#paint0_linear_88_685)" fill-opacity="0.9"/>
<path opacity="0.1" d="M518 3797.5C518 3972.3 376.298 4114 201.5 4114C26.7019 4114 -115 3972.3 -115 3797.5C-115 3622.7 26.7019 3481 201.5 3481C376.298 3481 518 3622.7 518 3797.5ZM10.2242 3797.5C10.2242 3903.14 95.8613 3988.78 201.5 3988.78C307.139 3988.78 392.776 3903.14 392.776 3797.5C392.776 3691.86 307.139 3606.22 201.5 3606.22C95.8613 3606.22 10.2242 3691.86 10.2242 3797.5Z" fill="url(#paint1_linear_88_685)" fill-opacity="0.9"/>
<path opacity="0.1" d="M2044 7741.5C2044 7916.3 1902.3 8058 1727.5 8058C1552.7 8058 1411 7916.3 1411 7741.5C1411 7566.7 1552.7 7425 1727.5 7425C1902.3 7425 2044 7566.7 2044 7741.5ZM1536.22 7741.5C1536.22 7847.14 1621.86 7932.78 1727.5 7932.78C1833.14 7932.78 1918.78 7847.14 1918.78 7741.5C1918.78 7635.86 1833.14 7550.22 1727.5 7550.22C1621.86 7550.22 1536.22 7635.86 1536.22 7741.5Z" fill="url(#paint2_linear_88_685)" fill-opacity="0.9"/>
<path opacity="0.1" d="M694 6793.5C694 7030.15 502.154 7222 265.5 7222C28.846 7222 -163 7030.15 -163 6793.5C-163 6556.85 28.846 6365 265.5 6365C502.154 6365 694 6556.85 694 6793.5ZM6.53738 6793.5C6.53738 6936.52 122.479 7052.46 265.5 7052.46C408.521 7052.46 524.463 6936.52 524.463 6793.5C524.463 6650.48 408.521 6534.54 265.5 6534.54C122.479 6534.54 6.53738 6650.48 6.53738 6793.5Z" fill="url(#paint3_linear_88_685)" fill-opacity="0.9"/>
<path opacity="0.1" d="M1097 9182C1097 9538.22 808.224 9827 452 9827C95.7763 9827 -193 9538.22 -193 9182C-193 8825.78 95.7763 8537 452 8537C808.224 8537 1097 8825.78 1097 9182ZM62.1963 9182C62.1963 9397.28 236.717 9571.8 452 9571.8C667.283 9571.8 841.804 9397.28 841.804 9182C841.804 8966.72 667.283 8792.2 452 8792.2C236.717 8792.2 62.1963 8966.72 62.1963 9182Z" fill="url(#paint4_linear_88_685)" fill-opacity="0.9"/>
<path opacity="0.1" d="M2461 11538C2461 11894.2 2172.22 12183 1816 12183C1459.78 12183 1171 11894.2 1171 11538C1171 11181.8 1459.78 10893 1816 10893C2172.22 10893 2461 11181.8 2461 11538ZM1426.2 11538C1426.2 11753.3 1600.72 11927.8 1816 11927.8C2031.28 11927.8 2205.8 11753.3 2205.8 11538C2205.8 11322.7 2031.28 11148.2 1816 11148.2C1600.72 11148.2 1426.2 11322.7 1426.2 11538Z" fill="url(#paint5_linear_88_685)" fill-opacity="0.9"/>
<path opacity="0.1" d="M1818 1333.5C1818 1625.38 1581.38 1862 1289.5 1862C997.618 1862 761 1625.38 761 1333.5C761 1041.62 997.618 805 1289.5 805C1581.38 805 1818 1041.62 1818 1333.5ZM970.103 1333.5C970.103 1509.9 1113.1 1652.9 1289.5 1652.9C1465.9 1652.9 1608.9 1509.9 1608.9 1333.5C1608.9 1157.1 1465.9 1014.1 1289.5 1014.1C1113.1 1014.1 970.103 1157.1 970.103 1333.5Z" fill="url(#paint6_linear_88_685)"/>
<path opacity="0.1" d="M2138 2989.5C2138 3281.38 1901.38 3518 1609.5 3518C1317.62 3518 1081 3281.38 1081 2989.5C1081 2697.62 1317.62 2461 1609.5 2461C1901.38 2461 2138 2697.62 2138 2989.5ZM1290.1 2989.5C1290.1 3165.9 1433.1 3308.9 1609.5 3308.9C1785.9 3308.9 1928.9 3165.9 1928.9 2989.5C1928.9 2813.1 1785.9 2670.1 1609.5 2670.1C1433.1 2670.1 1290.1 2813.1 1290.1 2989.5Z" fill="url(#paint7_linear_88_685)"/>
</g>
<defs>
<linearGradient id="paint0_linear_88_685" x1="194" y1="1789" x2="194" y2="2177" gradientUnits="userSpaceOnUse">
<stop stop-color="#00FA46"/>
<stop offset="1" stop-color="#009FA0"/>
</linearGradient>
<linearGradient id="paint1_linear_88_685" x1="201.5" y1="3481" x2="201.5" y2="4114" gradientUnits="userSpaceOnUse">
<stop stop-color="#00FA46"/>
<stop offset="1" stop-color="#009FA0"/>
</linearGradient>
<linearGradient id="paint2_linear_88_685" x1="1727.5" y1="7425" x2="1727.5" y2="8058" gradientUnits="userSpaceOnUse">
<stop stop-color="#00FA46"/>
<stop offset="1" stop-color="#009FA0"/>
</linearGradient>
<linearGradient id="paint3_linear_88_685" x1="265.5" y1="6365" x2="265.5" y2="7222" gradientUnits="userSpaceOnUse">
<stop stop-color="#00FA46"/>
<stop offset="1" stop-color="#009FA0"/>
</linearGradient>
<linearGradient id="paint4_linear_88_685" x1="452" y1="8537" x2="452" y2="9827" gradientUnits="userSpaceOnUse">
<stop stop-color="#00FA46"/>
<stop offset="1" stop-color="#009FA0"/>
</linearGradient>
<linearGradient id="paint5_linear_88_685" x1="1816" y1="10893" x2="1816" y2="12183" gradientUnits="userSpaceOnUse">
<stop stop-color="#00FA46"/>
<stop offset="1" stop-color="#009FA0"/>
</linearGradient>
<linearGradient id="paint6_linear_88_685" x1="2637.5" y1="-1171" x2="2637.5" y2="-114" gradientUnits="userSpaceOnUse">
<stop stop-color="#00FA46"/>
<stop offset="1" stop-color="#009FA0"/>
</linearGradient>
<linearGradient id="paint7_linear_88_685" x1="2957.5" y1="485" x2="2957.5" y2="1542" gradientUnits="userSpaceOnUse">
<stop stop-color="#00FA46"/>
<stop offset="1" stop-color="#009FA0"/>
</linearGradient>
<clipPath id="clip0_88_685">
<rect width="1728" height="13250" fill="white"/>
</clipPath>
</defs>
</svg>
